<?xml version="1.0" encoding="utf-8"?>
<!-- Generator: Adobe Illustrator 27.3.1, SVG Export Plug-In . SVG Version: 6.00 Build 0)  -->
<svg version="1.1" id="Layer_1" xmlns="http://www.w3.org/2000/svg" xmlns:xlink="http://www.w3.org/1999/xlink" x="0px" y="0px"
	 viewBox="0 0 256.3 129.3" style="enable-background:new 0 0 256.3 129.3;" xml:space="preserve">
<style type="text/css">
	.st0{fill:#EA0029;}
	.st1{fill:#FFFFFF;}
	.st2{fill:#F9F9FA;}
	.st3{fill:#FFEA00;}
</style>
<rect y="0" class="st0" width="256.3" height="129.3"/>
<g>
	<g>
		<g>
			<path class="st1" d="M39,64.2c0-1.4-0.4-2.4-1.2-3.1c-0.8-0.6-1.9-0.9-3.5-0.6l0,0c0.5-0.3,1.1-0.5,1.7-0.7
				c0.6-0.1,1.9-0.4,1.9-1.2c0-0.6-1.9-3.5-3.7-3.3c-7.4,0.6-20.2,7.8-19.7,16.1c0.3,6,3.8,8.5,6.8,9C30,81.7,39.1,71.9,39,64.2z
				 M35.6,64.2c-0.1,2.8-3,7.3-8.2,11.1c-1.6,1.2-5,2.4-7.1,2c-1.5-0.2-2-1.5-2-2.8c0-3.1,2.1-5.9,4.3-7.7c0,0.4,0,1.1,0.5,1.2
				s1-0.6,1.2-0.9c1.8-2.5,6.5-5.1,9.8-4.9C35.1,62.3,35.6,63.3,35.6,64.2z"/>
			<path class="st1" d="M206,71.5c-4.7,2.3-5.1,2.3-6,2.4c-0.5,0-1-0.7-0.9-1.1c0-0.9,0.3-1.5,3.3-4.3c0.4-0.4,1.2-1.1,1.2-1.7
				c0-0.5-0.4-1.2-0.7-1.7c-0.1-0.2-0.5-1.2-0.8-1.2c-0.5-0.1-1.4,0.5-1.8,0.8c-2.8,1.8-5.7,3.6-8.5,5.5l-0.1-0.1
				c0.8-1.4,3.6-4.2,3.6-5.9c0-1-0.5-1.8-1.6-2c-2.5-0.4-9.3,5.8-11.2,7.7c-0.1,0.1-0.6,0.6-0.8,0.6s-0.3-0.3-0.3-0.4
				c0-0.8,0.7-1.4,1.1-1.9c0.6-0.8,1.4-1.4,2.1-2.2c0.5-0.5,1.5-1.6,1.5-2.3c0-0.8-1.2-0.9-1.7-1c-1.8-0.4-4.6,2.5-5.8,5.6
				c0-0.1,0-0.2-0.1-0.3c-1.2,0.8-2.3,2.2-4,1.9c0.7-1.5,1.5-2.8,1.5-4.5c0-1.2-0.2-2-1.4-2.3c0.4-0.2,0.9-0.4,0.9-1
				c0-1-1.3-1.5-2.1-1.5c-2.3,0-5.1,1-7.2,2.7c-1.9,1.4-3.2,3.1-3.4,5.3c-4.3,3.4-5.7,4-6.4,4c-1.3,0-1.8-0.6-2.5-1.6
				c2.6-1.6,7.8-3.7,7.8-7.3c0-1.1-0.7-2.8-2-2.7c-2.6,0-10.8,7.4-12.8,9.4c0-0.3,0-0.7,0.1-1c2.3-2.8,16-15.9,16-18.4
				c0-0.5-0.4-1-1-1c-1.7-0.1-10.9,7.5-15.1,14.3c-0.9,1.5-1.9,3-2.5,4.5c-2,1.8-5.1,4.5-7.6,4.6c-1.2,0.1-2.5-0.3-2.4-1.8
				c0-0.3,0.1-0.6,0.1-0.9c7.4-3,9.3-5.9,9.3-7.8c0-1.5-1.5-1.7-2.8-1.7c-4.2,0.3-8.9,4.3-10.1,8.6c-1.6,1.5-4.4,4.1-6.5,4.3
				c-1,0.1-1.6-0.6-1.9-1.5c-0.2-0.9-0.1-2,0.3-2.7c8.3-8.8,9.3-12.3,9.6-16c0-0.5-0.1-1.4-0.8-1.4c-1.2,0.1-4.9,4-8.3,8.5
				c-2,2.7-3.5,6.1-4,9.4c-2,1.8-5.1,4.7-7.8,5c-1.2,0.1-2.5-0.3-2.4-1.7c0-0.3,0.1-0.6,0.1-0.9c7.4-3.2,9.3-6.2,9.3-8.1
				c0-1.5-1.5-1.7-2.8-1.6c-5,0.5-10.6,6.2-10.4,11.2c0.1,2.5,1.4,4.9,4.2,4.6c3.4-0.3,7.2-3.6,9.6-6.4c0,0.1,0,0.2,0,0.3
				c0,2.3,0.6,4.9,3.4,4.7c2.8-0.3,5.9-3.4,8-5.8c0,0.1,0,0.2,0,0.2c0.1,2.5,1.4,4.9,4.2,4.7c3.3-0.3,6.9-3.2,9.3-5.8
				c0,1.2,0.4,4.4,1.7,4.3c0.7,0,1.1-0.6,1.4-1.2c0.6-1,1.2-1.9,2-2.7c1.2,1.8,3,4.6,5.5,4.5c2.2-0.1,6-3.5,8.2-5.5
				c0.4,3,2.1,4.6,3.9,4.7c2.4,0,4.3-1.2,5.9-2.8c2.3,0.1,3.9-0.5,5.4-1.9c0,0.1,0,0.2,0,0.4c0,1.4,0.5,4.4,2.4,4.5
				c0.7,0,1.2-0.5,1.7-1c1.8-2.1,4-4.2,6-6.2c0.3-0.2,1.1-1.1,1.5-1c0.2,0,0.3,0.1,0.3,0.3c0,0.1-0.2,0.4-0.2,0.5
				c-2.5,3.5-3.4,5.2-3.4,6.4c0,0.9,0.8,1.7,1.7,1.8c1.3,0.1,2.7-1.3,3.6-2c2-1.6,4.1-3.2,6.1-4.8l0.1,0.1c-1,1.4-2.8,3.9-2.8,5.8
				c0,1.1,0.8,2.3,2,2.5c2.2,0.3,7.7-3.3,9.5-4.3C206.1,72.7,206,72.1,206,71.5z M139.9,63.6c0.3-0.1,0.5,0.1,0.5,0.4
				c0,0.7-2.3,3.5-5.6,4.9C135.7,66.3,138,64.3,139.9,63.6z M129.4,57.6c-0.7,2.2-3.1,6.1-5.8,8.9c0,0-0.1,0-0.1-0.1
				C125.3,62.3,127.5,58.6,129.4,57.6z M114.6,65.9c0.3-0.1,0.5,0.1,0.5,0.4c0,0.6-2.3,3.5-5.6,5C110.5,68.6,112.7,66.5,114.6,65.9z
				 M151.3,69.1c1-1.4,5-4.2,6.4-4.2c0.2,0,0.5,0.1,0.5,0.3c0,0.8-1.3,1.6-1.8,2.1c-1.2,0.9-2.4,1.7-3.6,2.6
				C152.4,69.5,151.9,69.3,151.3,69.1z M170.2,70.9c-0.9,0.8-1.7,1.5-3,1.5c-1,0-1.7-0.4-1.7-1.5c0-1.2,0.7-2.7,1.6-3.5
				c1.2-1.1,3-2,4.3-2.7c0.2,0.1-1.7,2.5-1.7,4.5C169.8,69.8,170,70.3,170.2,70.9z"/>
			<path class="st1" d="M64.2,78.6c-0.6,0-1.2-0.4-1.2-1c0-1.5,1.9-3.5,3-4.5c0.9-0.8,1.6-1.4,1.6-2.6c-0.1-0.7-0.3-1.3-0.9-2
				c-0.4-0.4-2.5,0.1-6.1,0.7c0.2-0.3,0.3-0.7,0.3-1.1c0-0.3-0.3-0.6-0.7-0.6c-0.9,0-4.8,2.8-4.8,5.6c0,0.8,0.2,1.1,1,1.2
				c-0.7,1-1.5,2-2.5,2.8c0,0,0,0,0,0.1c-1.3,0.9-2.7,1.8-3.5,1.8c-0.6,0-1-0.2-1-0.9c0-1.7,2.7-4.7,4-5.8c0.6-0.5,1.7-1.4,1.6-2.3
				c-0.2-2-0.6-2.1-0.9-2.1c-1,0-4.7,3.6-5.5,4.3c-1.3,1.1-2.5,2.2-3.8,3.3c-1.8,1.6-3.9,2.6-4.6,2.5c-0.3,0-0.3-0.4-0.3-0.6
				c0-1.6,0.9-2.4,2.1-3.2c1.5-1,1.7-1.3,2.9-2.6c0.4-0.3,1.5-1.4,1.5-2c0.2-1.1-1.8-0.9-2.3-0.9c-0.7,0-1.2,0-1.7,0.4
				c-2.5,1.5-5.3,5.2-5.3,8.9c0,1.7,1,3.9,2.9,4c2.1,0.1,4.7-3.2,6.2-4.5l0.1,0.1c-0.4,1-0.8,2-0.8,3.2c0,1.3,0.8,2.6,2.3,2.6
				c2.8,0.1,6.9-4.3,8.9-6.2c0-0.1,0-0.3-0.1-0.4c0.8-0.7,1.5-1.5,2.2-2.6c1.3-0.3,2.7-0.6,4-1c0,0,0.1,0,0.1,0.1
				c-1.5,1.9-3.5,4-3.5,6.6c0,1.5,1,2.9,2.6,2.9c2.2,0,6.6-4.5,8.1-6.2c-0.1-0.5-0.2-0.9-0.3-1.4C68.3,76,65.9,78.6,64.2,78.6z"/>
			<path class="st1" d="M100.8,74.8C100.8,74.8,100.8,74.7,100.8,74.8c2.9-4.9,5.9-9.8,9-14.6c0.5-0.9,1.8-2.4,1.4-3.3
				c-1-2.6-0.8-3.8-3.2-4.1c-1.9-0.2-3.9-0.1-5.8,0.1c-4.8,0.5-10,1.5-14.4,3.9c-2.5,1.3-2.4,2.1-2.9,4.6c-0.1,0.7-0.3,1.6-0.3,2.3
				c0,1,0.8,1,1.7,0.9c0.7-0.1,1.5-0.1,2.2-0.2c1.5-0.2,3.1,0.3,3.1-0.5c0-0.8-2.5-0.8-3.1-0.9v-0.1c6.3-2.5,12.8-4,19.4-4.8
				c-1.3,1.8-2.6,3.5-3.8,5.3c-2.5,3.4-9.6,13.1-9.6,16.9c0,1.1,1.1,1.5,2.1,1.4c1.2-0.1,2.7-2.5,3.4-3.5c0.5-0.6,1.6-2.1,1.6-2.9
				C101.7,74.7,101.2,74.6,100.8,74.8z"/>
		</g>
		<path class="st1" d="M230.4,20.2v-5.3H228v-0.7h5.9v0.7h-2.5v5.3H230.4z M234.8,20.2v-6h1.5l1.8,4.3c0.2,0.4,0.3,0.7,0.4,0.9
			c0.1-0.2,0.2-0.5,0.4-1l1.8-4.2h1.3v6h-1v-5.1l-2.2,5.1h-0.9l-2.1-5.1v5.1H234.8z"/>
	</g>
	<g>
		<path class="st2" d="M15.3,98.3v-9.2h1.2v4.6l4.6-4.6h1.6l-3.9,3.7l4,5.5h-1.6L18,93.7l-1.5,1.5v3.2L15.3,98.3L15.3,98.3z"/>
		<path class="st2" d="M28.1,97.5c-0.4,0.4-0.8,0.6-1.2,0.8c-0.4,0.1-0.8,0.2-1.2,0.2c-0.7,0-1.3-0.2-1.7-0.5
			c-0.4-0.4-0.6-0.8-0.6-1.4c0-0.3,0.1-0.6,0.2-0.9s0.3-0.5,0.6-0.6c0.2-0.2,0.5-0.3,0.8-0.4c0.2-0.1,0.6-0.1,1-0.2
			c0.9-0.1,1.6-0.2,2-0.4c0-0.2,0-0.3,0-0.3c0-0.5-0.1-0.8-0.3-1c-0.3-0.3-0.7-0.4-1.3-0.4c-0.5,0-0.9,0.1-1.2,0.3
			c-0.3,0.2-0.4,0.5-0.6,1l-1.1-0.2c0.1-0.5,0.3-0.9,0.5-1.1c0.2-0.3,0.6-0.5,1-0.7s0.9-0.2,1.5-0.2s1,0.1,1.4,0.2s0.6,0.3,0.8,0.5
			c0.2,0.2,0.3,0.5,0.4,0.8c0,0.2,0.1,0.5,0.1,1v1.5c0,1,0,1.7,0.1,2c0,0.3,0.1,0.5,0.3,0.8h-1.2C28.2,98.1,28.1,97.8,28.1,97.5z
			 M28,95c-0.4,0.2-1,0.3-1.8,0.4c-0.5,0.1-0.8,0.1-1,0.2s-0.3,0.2-0.4,0.4c-0.1,0.2-0.2,0.3-0.2,0.5c0,0.3,0.1,0.6,0.3,0.8
			c0.2,0.2,0.6,0.3,1,0.3s0.8-0.1,1.2-0.3c0.3-0.2,0.6-0.4,0.7-0.8c0.1-0.3,0.2-0.6,0.2-1.1C28,95.4,28,95,28,95z"/>
		<path class="st2" d="M31.9,98.3h-1v-9.2H32v3.3c0.5-0.6,1.1-0.9,1.8-0.9c0.4,0,0.8,0.1,1.2,0.2c0.4,0.2,0.7,0.4,0.9,0.7
			c0.2,0.3,0.4,0.7,0.6,1.1c0.1,0.4,0.2,0.9,0.2,1.4c0,1.1-0.3,2-0.8,2.6c-0.6,0.6-1.2,0.9-2,0.9s-1.4-0.3-1.8-1v0.9H31.9z
			 M31.9,94.9c0,0.8,0.1,1.4,0.3,1.7c0.4,0.6,0.8,0.9,1.4,0.9c0.5,0,0.9-0.2,1.3-0.6c0.4-0.4,0.5-1.1,0.5-1.9c0-0.9-0.2-1.5-0.5-1.9
			s-0.8-0.6-1.3-0.6s-0.9,0.2-1.3,0.6C32.1,93.5,31.9,94.1,31.9,94.9z"/>
		<path class="st2" d="M42.4,97.5c-0.4,0.4-0.8,0.6-1.2,0.8c-0.4,0.1-0.8,0.2-1.2,0.2c-0.7,0-1.3-0.2-1.7-0.5
			c-0.4-0.4-0.6-0.8-0.6-1.4c0-0.3,0.1-0.6,0.2-0.9c0.1-0.3,0.3-0.5,0.6-0.6c0.2-0.2,0.5-0.3,0.8-0.4c0.2-0.1,0.6-0.1,1-0.2
			c0.9-0.1,1.6-0.2,2-0.4c0-0.2,0-0.3,0-0.3c0-0.5-0.1-0.8-0.3-1c-0.3-0.3-0.7-0.4-1.3-0.4c-0.5,0-0.9,0.1-1.2,0.3
			c-0.3,0.2-0.4,0.5-0.6,1l-1.1-0.2c0.1-0.5,0.3-0.9,0.5-1.1c0.2-0.3,0.6-0.5,1-0.7s0.9-0.2,1.5-0.2s1,0.1,1.4,0.2s0.6,0.3,0.8,0.5
			s0.3,0.5,0.3,0.8c0,0.2,0.1,0.5,0.1,1v1.5c0,1,0,1.7,0.1,2c0,0.3,0.1,0.5,0.3,0.8h-1.2C42.5,98.1,42.4,97.8,42.4,97.5z M42.3,95
			c-0.4,0.2-1,0.3-1.8,0.4c-0.5,0.1-0.8,0.1-1,0.2s-0.3,0.2-0.4,0.4c-0.1,0.2-0.2,0.3-0.2,0.5c0,0.3,0.1,0.6,0.3,0.8
			c0.2,0.2,0.6,0.3,1,0.3s0.8-0.1,1.2-0.3c0.3-0.2,0.6-0.4,0.7-0.8c0.1-0.3,0.2-0.6,0.2-1.1V95z"/>
		<path class="st2" d="M45.2,98.3v-6.7h1v0.9c0.5-0.7,1.2-1.1,2.1-1.1c0.4,0,0.8,0.1,1.1,0.2s0.6,0.3,0.8,0.6
			c0.2,0.2,0.3,0.5,0.4,0.8c0,0.2,0.1,0.6,0.1,1.1v4.1h-1.1v-4c0-0.5,0-0.8-0.1-1s-0.2-0.4-0.5-0.5c-0.2-0.1-0.5-0.2-0.8-0.2
			c-0.5,0-0.9,0.2-1.2,0.5s-0.5,0.9-0.5,1.7v3.6H45.2z"/>
		<path class="st2" d="M52.3,90.4v-1.3h1.1v1.3H52.3z M52.3,98.3v-6.7h1.1v6.7H52.3z"/>
		<path class="st2" d="M59.7,98.3h-1v-9.2h1.1v3.3c0.5-0.6,1.1-0.9,1.8-0.9c0.4,0,0.8,0.1,1.2,0.2c0.4,0.2,0.7,0.4,0.9,0.7
			c0.2,0.3,0.4,0.7,0.6,1.1c0.1,0.4,0.2,0.9,0.2,1.4c0,1.1-0.3,2-0.8,2.6c-0.6,0.6-1.2,0.9-2,0.9s-1.4-0.3-1.8-1v0.9H59.7z
			 M59.7,94.9c0,0.8,0.1,1.4,0.3,1.7c0.4,0.6,0.8,0.9,1.4,0.9c0.5,0,0.9-0.2,1.3-0.6c0.4-0.4,0.5-1.1,0.5-1.9c0-0.9-0.2-1.5-0.5-1.9
			s-0.8-0.6-1.2-0.6c-0.5,0-0.9,0.2-1.3,0.6C59.9,93.5,59.7,94.1,59.7,94.9z"/>
		<path class="st2" d="M65.8,98.3v-9.2h1.1v9.2H65.8z"/>
		<path class="st2" d="M68.3,95c0-1.2,0.3-2.1,1-2.7c0.6-0.5,1.3-0.7,2.1-0.7c0.9,0,1.7,0.3,2.2,0.9c0.6,0.6,0.9,1.4,0.9,2.5
			c0,0.9-0.1,1.5-0.4,2s-0.6,0.9-1.1,1.1c-0.5,0.3-1,0.4-1.6,0.4c-0.9,0-1.7-0.3-2.3-0.9C68.6,97,68.3,96.1,68.3,95z M69.4,95
			c0,0.9,0.2,1.5,0.6,1.9s0.8,0.6,1.4,0.6s1-0.2,1.4-0.6s0.6-1.1,0.6-1.9s-0.2-1.4-0.6-1.9c-0.4-0.4-0.8-0.6-1.4-0.6s-1,0.2-1.4,0.6
			S69.4,94.1,69.4,95z"/>
		<path class="st2" d="M75.8,98.3v-6.7h1v0.9c0.5-0.7,1.2-1.1,2.1-1.1c0.4,0,0.8,0.1,1.1,0.2c0.3,0.1,0.6,0.3,0.8,0.6
			c0.2,0.2,0.3,0.5,0.4,0.8c0,0.2,0.1,0.6,0.1,1.1v4.1h-1.1v-4c0-0.5,0-0.8-0.1-1s-0.2-0.4-0.5-0.5c-0.2-0.1-0.5-0.2-0.8-0.2
			c-0.5,0-0.9,0.2-1.2,0.5c-0.3,0.3-0.5,0.9-0.5,1.7v3.6H75.8z"/>
		<path class="st2" d="M82.8,98.9l1.1,0.2c0,0.3,0.2,0.6,0.4,0.7c0.3,0.2,0.7,0.3,1.1,0.3c0.5,0,0.9-0.1,1.2-0.3
			c0.3-0.2,0.5-0.5,0.6-0.9c0.1-0.2,0.1-0.7,0.1-1.4c-0.5,0.6-1.1,0.9-1.8,0.9c-0.9,0-1.6-0.3-2.1-1s-0.8-1.5-0.8-2.4
			c0-0.6,0.1-1.2,0.3-1.8c0.2-0.5,0.6-1,1-1.2c0.4-0.3,0.9-0.4,1.5-0.4c0.8,0,1.4,0.3,1.9,1v-0.8h1v5.8c0,1-0.1,1.8-0.3,2.2
			c-0.2,0.4-0.5,0.8-1,1c-0.5,0.3-1,0.4-1.7,0.4c-0.8,0-1.4-0.2-1.9-0.5C83,100.1,82.7,99.6,82.8,98.9z M83.7,94.9
			c0,0.9,0.2,1.5,0.5,1.9s0.8,0.6,1.3,0.6s1-0.2,1.3-0.6c0.4-0.4,0.5-1,0.5-1.9c0-0.8-0.2-1.4-0.5-1.8c-0.4-0.4-0.8-0.6-1.3-0.6
			s-0.9,0.2-1.3,0.6C83.9,93.5,83.7,94.1,83.7,94.9z"/>
		<path class="st2" d="M93.7,90.4v-1.3h1.1v1.3H93.7z M93.7,98.3v-6.7h1.1v6.7H93.7z"/>
		<path class="st2" d="M100.9,98.3v-1c-0.5,0.8-1.2,1.1-2.1,1.1c-0.4,0-0.8-0.1-1.1-0.2c-0.3-0.1-0.6-0.3-0.8-0.6
			c-0.2-0.2-0.3-0.5-0.3-0.8c0-0.2-0.1-0.6-0.1-1.1v-4.1h1.1v3.7c0,0.6,0,1,0.1,1.2c0.1,0.3,0.2,0.5,0.5,0.7
			c0.2,0.2,0.5,0.3,0.9,0.3c0.3,0,0.7-0.1,1-0.3c0.3-0.2,0.5-0.4,0.6-0.7c0.1-0.3,0.2-0.7,0.2-1.3v-3.6h1.1v6.7
			C102,98.3,100.9,98.3,100.9,98.3z"/>
		<path class="st2" d="M103.6,98.3v-6.7h1v0.9c0.2-0.3,0.5-0.6,0.8-0.8c0.3-0.2,0.7-0.3,1.2-0.3s0.9,0.1,1.2,0.3
			c0.3,0.2,0.5,0.5,0.7,0.9c0.5-0.8,1.2-1.2,2.1-1.2c0.7,0,1.2,0.2,1.5,0.5c0.4,0.4,0.5,0.9,0.5,1.7v4.6h-1.1V94c0-0.5,0-0.8-0.1-1
			s-0.2-0.4-0.4-0.5c-0.2-0.1-0.4-0.2-0.7-0.2c-0.5,0-0.9,0.2-1.2,0.5c-0.3,0.3-0.5,0.8-0.5,1.5v3.9h-1.1V94c0-0.5-0.1-0.9-0.3-1.1
			c-0.2-0.3-0.5-0.4-0.9-0.4c-0.3,0-0.6,0.1-0.9,0.3c-0.3,0.2-0.5,0.4-0.6,0.7c-0.1,0.3-0.2,0.8-0.2,1.4v3.5L103.6,98.3L103.6,98.3z
			"/>
		<path class="st2" d="M114.3,90.4v-1.3h1.1v1.3H114.3z M114.3,98.3v-6.7h1.1v6.7H114.3z"/>
		<path class="st2" d="M117.5,98.3V97h1.3v1.3H117.5z"/>
		<path class="st2" d="M121.1,98.3V97h1.3v1.3H121.1z"/>
	</g>
	<g>
		<g>
			<g>
				<path class="st3" d="M198.9,12.5c0.3,1.6,0.3,3.2,0.4,4.8c0.1,1.6,0.7,3.4,0.4,4.7c-0.4,1.9-4.9,4-3.8,7.3
					c-2.8,1.5-5.7,1.4-5.3-3.1c0.4-5,4-12.3,6.8-14.5C197.9,12,198.5,12.1,198.9,12.5z"/>
				<path class="st3" d="M184.2,29.4c-2.1,0.7-4.4,1.2-6.8,1.6c1.4-5.4-5-7.5-6.6-11c-0.3-3.6-1.4-9.3,3.4-7.6
					c4.1,1.4,7.7,8.2,10,11.5C184.2,25.7,184.2,27.5,184.2,29.4z"/>
				<path class="st3" d="M170.4,35.4c-2-0.5-1.8-2.9-2.6-4.4c-0.8-1.3-2.3-1.3-3.4-2.3c0.4-3,0-6.7,0.7-9.4c0.8,0.1,1.2-0.1,2.2,0
					C171.4,21.9,175.3,30.8,170.4,35.4z"/>
				<path class="st3" d="M207.1,19.5c0.4,1.8,3.4,6.2,3.5,8.5c0.2,4.3-5.7,7.7-10.4,5.3c-1.4-4.4,1.9-6.6,3.8-9
					C205.3,22.8,206,20.8,207.1,19.5z"/>
				<path class="st3" d="M224.6,32.8c-3.1,5.4-6.6,10.4-13.7,11.9c-4.2-4.5,1.1-8.6,4.1-11.5c2-1.9,4.1-3.6,5.3-5.1
					C222,29.3,223.3,31,224.6,32.8z"/>
				<path class="st3" d="M153.9,29.1c0.9,1.6,1.7,3.3,3.7,4.4c1.9,1,3.3,1.3,4.6,3.4c0.6,0.9,1.5,2.5,1.3,3.4
					c-0.2,1.1-1.9,1.4-2.6,2.3c-3.7-3.6-11.1-5.1-9.1-13.5C152.5,29.1,153.2,29.1,153.9,29.1z"/>
				<path class="st3" d="M199.9,40.4c-5.4-1.5-10.8,0.7-17.2,0.3c-1.4-0.1-2.9-0.6-3.7-0.4c-0.9,0.2-2.7,2.2-1.8,3.7
					c-0.6,1.2-1.6,1.8-2.3,2.8c-0.4-0.2-1.3,0-1.6-0.3c-0.6,1.1-1.9,1.4-2.6,2.3c-2.3,3-3.1,7.6-5.1,10.9c-1.4-0.8-2.7-1.6-2.8-2.8
					c0-1.2,2.5-4.6,3.4-6c1.4-2.1,1.3-2.9-0.6-4.7c2.3-4.6,7.5-8.6,11.7-11.9c0.6-0.4,1.9,0,3.2,0C188.1,34.2,199,33.5,199.9,40.4z"
					/>
				<path class="st3" d="M145.7,39.4c3.3,2.7,6.8,5.3,10.1,8.1c-1,1.7-2.3,3-3.4,4.6C147.2,51.1,142.9,45.5,145.7,39.4z"/>
				<path class="st3" d="M161.1,77c2.1-0.4,3.1,1.7,5,2.2c2.3,0.6,4.6-0.3,6.2-1.2c5.7,4.9,10.9,10.6,20.6,9.7
					c4.2-0.4,8.9-3.1,11.9-6.2c6.1-6.2,10.5-18.4,3.7-26.3c-2-2.4-6.1-5.4-9.5-6.5c-0.6-0.2-1.4-0.1-2.1-0.3c-1.2-0.4-2.5-1.3-4.8-1
					c-4.7,0.5-8.3,4.1-11.5,6.3c-0.2,1.6-0.9,2.7-1,4.3c-2.1-0.6-2.9-2.5-6-2.2c1.1-2.4,2.8-4.5,4.4-6.6c1.8-2.3,4.6-3.1,7.8-4.6
					c3.4-1.5,5.7-3,10.3-2.8c4.1,0.2,7.5,2.5,10.7,4.1c1.1,0.6,2.3,0.9,3.4,1.5c3.7,2,7.7,9.2,8.1,14.5c0.6,7.4-2.1,11.9-4,17.2
					c0.2,0.8,0.5,1.5,0.7,2.3c3.9,1.1,8.1,1.8,10.7,4.3c-0.6,1.5,0.9,2.1,1.3,3.1c1.1,2.7-0.2,4.7-0.6,7.5c-0.3,0.1-1.4-0.1-2.2,0
					c-2.8-3.9-6.5-6.8-10.4-9.5c0.2-1.2,0.4-2.5,0.4-4c0-0.1,0.1-0.1,0.1-0.3c-3,3.7-6.7,7-11.3,9.5c-4.4,2.4-10.2,4.4-16,4.7
					c-8.7,0.5-12.9-3.7-17.5-7.9C165.9,85.5,162,82,161.1,77z"/>
				<path class="st3" d="M237.2,49.9c-0.8,0.4-1.5,0.3-2.3,0.7c-0.7,0.4-1.1,1.2-1.8,1.5c-1.3,0.6-5.5,0.7-7.8,0.6
					c-3.2-0.1-6.4-0.4-8.2-1.6c-0.2-1.3-0.2-2.7-0.6-3.7c5.8-1,12.1-1.5,18.1-2.3C235.8,46.3,236.8,47.8,237.2,49.9z"/>
				<path class="st3" d="M147.6,56.5c-0.5,0.7-0.6,1.7-1,2.5c-1.9-0.9-4.5-1.1-5.7-2.6C142.1,54.4,146.1,55.7,147.6,56.5z"/>
				<path class="st3" d="M221.8,56.8c4.7,1.8,8.9,4.1,13.5,6c0,10.2-11.5,2-13.9-1.2C221.5,60,221.7,58.5,221.8,56.8z"/>
				<path class="st3" d="M218.2,71.1c1.3-0.1,2.5-0.2,3.7-0.4c2,1.7,5,5.6,7.3,8.2c0.8,0.9,2.1,1.9,2.3,2.6c0.4,1.6-0.3,3.4-1.6,4
					c-4,0.3-5.9-2.3-7.9-4.7C219.8,78.2,218.1,75.7,218.2,71.1z"/>
				<path class="st3" d="M152.2,79.7c-2.8,2-9.6,1.8-11.5-0.9c1.6-2.3,3.9,1.1,7,0.3c1.6-0.4,1.1-1.8,2.6-2.8
					C151.3,77.2,151.6,78.6,152.2,79.7z"/>
				<path class="st3" d="M161.4,90.3c-1.6,0.7-3.4,1.7-5.3,2.5c-2.8,1.2-5.5,3.3-8.7,1.8c-0.1-1.8,0.2-3.2,0.1-5
					c1.6-4.3,9.2-2.6,11.7-6c1.8,0.4,0.8,2.2,1.2,3.7C160.8,88.3,162.1,88.5,161.4,90.3z"/>
				<path class="st3" d="M208.8,89.3c8.9-0.3,7.1,14.4,4.3,19.5c-1.1,0-1.2,1-2.2,1c-0.9-1.6-1.5-3.9-2.1-6.3
					c-0.9-3.8-2.4-10.3-0.4-13.8C208.5,89.5,208.6,89.4,208.8,89.3z"/>
				<path class="st3" d="M170.7,100.1c-1.5,0-3,0.1-4.4,0.3c-1.1,1.2-3.6,2.9-5,4.6c-0.6,0.7-0.7,1.5-1.5,1.6
					c-1.5,0.3-2.5-0.7-3.4-1.8c0-5.9,3.9-10.8,9.7-11.5c0.8-0.1,2.2-0.2,3.1,0C171.6,94,172.3,97.9,170.7,100.1z"/>
				<path class="st3" d="M206.3,100.3c-1,4.9-1.5,10.3-2.5,15.3c-1.1,0.3-2.1,0.3-3.1,0c-3.1-4.6-1.9-14.2,0.4-18.8
					C203.7,97.1,204.8,98.9,206.3,100.3z"/>
				<path class="st3" d="M178.7,102.5c-1.1,1.5-3.2,2.6-3.5,5c-0.1,1,0.2,2.1,0.1,3.1c-0.3,3.3-2.4,5.2-6,5.7
					c-2.6-2.5-0.2-7,0.9-10.3c0.8-2.6,1.8-5,2.3-7.2C175.8,97.5,179.1,98.6,178.7,102.5z"/>
				<path class="st3" d="M186.7,105c-0.5,0.5-1.2,0.7-1.8,1c-1.9,4-4,7.8-6,11.7c-0.4-7.6,0.6-15.1,4.3-19.1
					C185.8,99.3,186.5,101.9,186.7,105z"/>
				<path class="st3" d="M194.6,121.6c-0.5-0.2-1-0.5-1.6-0.6c-0.9-6.2-2.1-13.1-2.9-19.8c0.9,0.1,1.4-0.5,2.2-0.4
					c1,0,2.6,1.5,3.1,2.2c1.2,1.7,2.3,7.2,2.1,11C197.1,117.2,195.8,119.9,194.6,121.6z"/>
			</g>
			<path class="st3" d="M169.5,88.8c4.6,4.3,8.8,8.4,17.5,7.9c5.8-0.3,11.6-2.3,16-4.7c4.6-2.5,8.4-5.9,11.3-9.5
				c0,0.1-0.1,0.2-0.1,0.3c0,1.5-0.2,2.7-0.4,4c3.9,2.7,7.7,5.6,10.4,9.5c0.8-0.1,1.9,0.1,2.2,0c0.3-2.8,1.7-4.8,0.6-7.5
				c-0.4-1-1.9-1.6-1.3-3.1c-2.6-2.4-6.9-3.1-10.7-4.3c-0.2-0.8-0.5-1.5-0.7-2.3c1.9-5.3,4.5-9.8,4-17.2c-0.4-5.3-4.4-12.6-8.1-14.5
				c-1-0.6-2.2-0.9-3.4-1.5c-3.3-1.6-6.6-3.9-10.7-4.1c-4.6-0.3-6.9,1.3-10.3,2.8c-3.2,1.4-6,2.3-7.8,4.6c-1.6,2.1-3.3,4.2-4.4,6.6
				c3.1-0.3,3.9,1.6,6,2.2c0.2-1.6,0.8-2.7,1-4.3c3.2-2.2,6.7-5.8,11.5-6.3c2.4-0.3,3.6,0.7,4.8,1c0.7,0.2,1.4,0.1,2.1,0.3
				c3.5,1,7.5,4.1,9.5,6.5c6.8,7.9,2.5,20-3.7,26.3c-3,3.1-7.7,5.8-11.9,6.2c-9.6,0.9-14.9-4.8-20.6-9.7c-1.6,0.9-3.8,1.8-6.2,1.2
				c-1.9-0.5-2.9-2.6-5-2.2C162,82,165.9,85.5,169.5,88.8z"/>
			<path class="st3" d="M197.4,11.8c-2.8,2.2-6.3,9.6-6.8,14.5c-0.4,4.5,2.5,4.6,5.3,3.1c-1.1-3.3,3.4-5.5,3.8-7.3
				c0.3-1.3-0.3-3.1-0.4-4.7c-0.1-1.6-0.2-3.2-0.4-4.8C198.5,12.1,197.9,12,197.4,11.8z"/>
			<path class="st3" d="M184.2,23.8c-2.3-3.2-5.9-10-10-11.5c-4.8-1.7-3.7,4-3.4,7.6c1.7,3.5,8,5.6,6.6,11c2.3-0.5,4.6-0.9,6.8-1.6
				C184.2,27.5,184.2,25.7,184.2,23.8z"/>
			<path class="st3" d="M167.3,19.3c-1-0.1-1.5,0.1-2.2,0c-0.7,2.7-0.3,6.4-0.7,9.4c1.1,1,2.6,1,3.4,2.3c0.9,1.5,0.6,3.9,2.6,4.4
				C175.3,30.8,171.4,21.9,167.3,19.3z"/>
			<path class="st3" d="M204,24.4c-1.9,2.4-5.2,4.5-3.8,9c4.7,2.4,10.6-1,10.4-5.3c-0.1-2.3-3.1-6.7-3.5-8.5
				C206,20.8,205.3,22.8,204,24.4z"/>
			<path class="st3" d="M220.3,28.1c-1.2,1.6-3.3,3.3-5.3,5.1c-3,2.8-8.3,7-4.1,11.5c7-1.5,10.5-6.5,13.7-11.9
				C223.3,31,222,29.3,220.3,28.1z"/>
			<path class="st3" d="M151.7,29.1c-2,8.4,5.4,9.9,9.1,13.5c0.8-0.9,2.5-1.2,2.6-2.3c0.1-0.9-0.8-2.4-1.3-3.4
				c-1.2-2.1-2.6-2.3-4.6-3.4c-2-1.1-2.8-2.8-3.7-4.4C153.2,29.1,152.5,29.1,151.7,29.1z"/>
			<path class="st3" d="M180.5,34.2c-1.3,0-2.7-0.4-3.2,0c-4.2,3.3-9.4,7.3-11.7,11.9c1.9,1.8,2,2.6,0.6,4.7c-0.9,1.4-3.4,4.9-3.4,6
				c0,1.2,1.4,2,2.8,2.8c2.1-3.3,2.8-7.8,5.1-10.9c0.7-1,2.1-1.2,2.6-2.3c0.4,0.3,1.2,0,1.6,0.3c0.8-1,1.8-1.6,2.3-2.8
				c-0.9-1.5,0.9-3.5,1.8-3.7c0.8-0.2,2.3,0.3,3.7,0.4c6.3,0.4,11.8-1.8,17.2-0.3C199,33.5,188.1,34.2,180.5,34.2z"/>
			<path class="st3" d="M152.5,52c1.1-1.5,2.4-2.9,3.4-4.6c-3.3-2.8-6.8-5.4-10.1-8.1C142.9,45.5,147.2,51.1,152.5,52z"/>
			<path class="st3" d="M234.5,45.1c-5.9,0.9-12.2,1.4-18.1,2.3c0.4,1,0.4,2.4,0.6,3.7c1.9,1.2,5,1.5,8.2,1.6c2.3,0.1,6.4,0,7.8-0.6
				c0.7-0.3,1.1-1.1,1.8-1.5c0.9-0.4,1.5-0.3,2.3-0.7C236.8,47.8,235.8,46.3,234.5,45.1z"/>
			<path class="st3" d="M140.9,56.4c1.2,1.6,3.9,1.7,5.7,2.6c0.4-0.8,0.6-1.8,1-2.5C146.1,55.7,142.1,54.4,140.9,56.4z"/>
			<path class="st3" d="M221.3,61.7c2.5,3.1,13.9,11.3,13.9,1.2c-4.6-2-8.8-4.2-13.5-6C221.7,58.5,221.5,60,221.3,61.7z"/>
			<path class="st3" d="M222.1,80.8c2,2.4,3.9,5,7.9,4.7c1.3-0.6,2-2.4,1.6-4c-0.2-0.8-1.6-1.7-2.3-2.6c-2.3-2.6-5.4-6.6-7.3-8.2
				c-1.1,0.2-2.4,0.3-3.7,0.4C218.1,75.7,219.8,78.2,222.1,80.8z"/>
			<path class="st3" d="M150.4,76.4c-1.5,1-1,2.4-2.6,2.8c-3.2,0.8-5.4-2.6-7-0.3c1.8,2.7,8.6,2.9,11.5,0.9
				C151.6,78.6,151.3,77.2,150.4,76.4z"/>
			<path class="st3" d="M160.5,87.2c-0.4-1.5,0.6-3.2-1.2-3.7c-2.5,3.4-10.1,1.7-11.7,6c0.1,1.8-0.2,3.2-0.1,5
				c3.1,1.5,5.9-0.6,8.7-1.8c1.9-0.8,3.7-1.8,5.3-2.5C162.1,88.5,160.8,88.3,160.5,87.2z"/>
			<path class="st3" d="M208.4,89.7c-1.9,3.5-0.5,10,0.4,13.8c0.6,2.4,1.2,4.7,2.1,6.3c1-0.1,1.1-1,2.2-1c2.8-5.1,4.6-19.9-4.3-19.5
				C208.6,89.4,208.5,89.5,208.4,89.7z"/>
			<path class="st3" d="M169.2,93.4c-0.9-0.2-2.3-0.1-3.1,0c-5.7,0.7-9.7,5.6-9.7,11.5c0.9,1,1.8,2.1,3.4,1.8
				c0.7-0.2,0.8-0.9,1.5-1.6c1.4-1.6,3.8-3.4,5-4.6c1.4-0.2,2.9-0.3,4.4-0.3C172.3,97.9,171.6,94,169.2,93.4z"/>
			<path class="st3" d="M201.2,96.8c-2.4,4.6-3.6,14.1-0.4,18.8c1,0.3,2,0.3,3.1,0c1-5,1.5-10.4,2.5-15.3
				C204.8,98.9,203.7,97.1,201.2,96.8z"/>
			<path class="st3" d="M172.6,98.8c-0.6,2.2-1.5,4.6-2.3,7.2c-1.1,3.3-3.5,7.8-0.9,10.3c3.6-0.6,5.7-2.4,6-5.7c0.1-1-0.3-2-0.1-3.1
				c0.3-2.4,2.5-3.5,3.5-5C179.1,98.6,175.8,97.5,172.6,98.8z"/>
			<path class="st3" d="M183.2,98.7c-3.7,4-4.6,11.5-4.3,19.1c2-3.9,4.1-7.8,6-11.7c0.6-0.3,1.3-0.6,1.8-1
				C186.5,101.9,185.8,99.3,183.2,98.7z"/>
			<path class="st3" d="M197.4,113.9c0.3-3.8-0.8-9.3-2.1-11c-0.5-0.7-2.1-2.2-3.1-2.2c-0.8,0-1.3,0.5-2.2,0.4
				c0.9,6.7,2.1,13.6,2.9,19.8c0.6,0.1,1.1,0.4,1.6,0.6C195.8,119.9,197.1,117.2,197.4,113.9z"/>
		</g>
		<path class="st3" d="M198.9,61.3c-0.5,0.1-0.9,0.3-1.2,0.6c-1.7-2.4-6.5-3.4-8.7-0.7c-1.1-0.6-2.1-1.3-3.3-1.7
			c0.2-0.9,0.6-1.6,1.2-2.2c2.1,0,3.5-1.2,5.2-1C194.6,56.4,197.4,59.8,198.9,61.3z"/>
		<path class="st3" d="M179.3,76.8c1.4,0,1.8,0.9,2.8,1.3c2.8-1.6,6.6,1.8,9.7-0.1c0.8,0.4,1.3,1.2,1.9,1.9
			C188.9,81.6,180.5,81.5,179.3,76.8z"/>
	</g>
</g>
</svg>
